<?xml version="1.0" encoding="utf-8"?>
<!-- Generator: Adobe Illustrator 16.2.0, SVG Export Plug-In . SVG Version: 6.00 Build 0)  -->
<!DOCTYPE svg PUBLIC "-//W3C//DTD SVG 1.1//EN" "http://www.w3.org/Graphics/SVG/1.1/DTD/svg11.dtd">
<svg version="1.1"
	 id="Layer_1" inkscape:version="0.48.0 r9654" sodipodi:docname="Google_Chrome_2011_Logo.svg" xmlns:sodipodi="http://sodipodi.sourceforge.net/DTD/sodipodi-0.dtd" xmlns:rdf="http://www.w3.org/1999/02/22-rdf-syntax-ns#" xmlns:inkscape="http://www.inkscape.org/namespaces/inkscape" xmlns:dc="http://purl.org/dc/elements/1.1/" xmlns:svg="http://www.w3.org/2000/svg" xmlns:cc="http://creativecommons.org/ns#"
	 xmlns="http://www.w3.org/2000/svg" xmlns:xlink="http://www.w3.org/1999/xlink" x="0px" y="0px" width="80px" height="80.028px"
	 viewBox="45.109 45.124 80 80.028" enable-background="new 45.109 45.124 80 80.028" xml:space="preserve">
<sodipodi:namedview  id="namedview70" inkscape:window-maximized="1" fit-margin-right="0" fit-margin-bottom="0" inkscape:window-x="-4" inkscape:window-y="-4" inkscape:current-layer="Layer_1" inkscape:window-height="712" inkscape:window-width="1024" inkscape:pageshadow="2" inkscape:pageopacity="0" fit-margin-left="0" gridtolerance="10" borderopacity="1" objecttolerance="10" fit-margin-top="0" showgrid="false" inkscape:cy="85.139249" bordercolor="#666666" pagecolor="#ffffff" inkscape:zoom="0.82051792" inkscape:cx="324.1857" guidetolerance="10">
	</sodipodi:namedview>
<circle id="circle47_1_" sodipodi:ry="83.805" sodipodi:cx="85.314003" sodipodi:cy="85.712997" sodipodi:rx="83.805" fill="#FFFFFF" cx="85.206" cy="85.291" r="39.387">
</circle>
<path id="path49_1_" inkscape:connector-curvature="0" fill-opacity="0.1" d="M110.27,92.452c0-13.843-11.222-25.065-25.064-25.065
	c-13.843,0-25.065,11.222-25.065,25.065h7.161c0-9.888,8.016-17.903,17.903-17.903c9.888,0,17.903,8.016,17.903,17.903"/>
<circle id="circle51_1_" sodipodi:ry="28.951" sodipodi:cx="89.123001" sodipodi:cy="96.378998" sodipodi:rx="28.951" fill-opacity="0.1" cx="86.996" cy="90.304" r="13.606">
</circle>
<linearGradient id="circle53_2_" gradientUnits="userSpaceOnUse" x1="-586.2744" y1="-93.6721" x2="-586.2744" y2="-93.3142" gradientTransform="matrix(82 0 0 82 48159.6797 7751.7246)">
	<stop  offset="0" style="stop-color:#81B4E0"/>
	<stop  offset="1" style="stop-color:#0C5A94"/>
</linearGradient>
<circle id="circle53_1_" sodipodi:ry="31.236" sodipodi:cx="85.314003" sodipodi:cy="85.711998" sodipodi:rx="31.236" fill="url(#circle53_2_)" cx="85.206" cy="85.29" r="14.68">
</circle>
<linearGradient id="path55_2_" gradientUnits="userSpaceOnUse" x1="-220.0415" y1="500.6619" x2="-220.0415" y2="533.2454" gradientTransform="matrix(1 0 0 1 306.5 -455.4746)">
	<stop  offset="0" style="stop-color:#F06B59"/>
	<stop  offset="1" style="stop-color:#DF2227"/>
</linearGradient>
<path id="path55_1_" inkscape:connector-curvature="0" fill="url(#path55_2_)" d="M121.011,67.387
	c-9.857-19.833-33.927-27.92-53.761-18.063c-6.185,3.074-11.47,7.692-15.345,13.408l16.113,27.929
	c-2.968-9.432,2.273-19.483,11.705-22.451c1.658-0.521,3.385-0.8,5.124-0.824"/>
<linearGradient id="path57_2_" gradientUnits="userSpaceOnUse" x1="-251.6333" y1="569.2712" x2="-235.1624" y2="542.0583" gradientTransform="matrix(1 0 0 1 306.5 -455.4746)">
	<stop  offset="0" style="stop-color:#388B41"/>
	<stop  offset="1" style="stop-color:#4CB749"/>
</linearGradient>
<path id="path57_1_" inkscape:connector-curvature="0" fill="url(#path57_2_)" d="M51.906,62.733
	c-12.333,18.397-7.417,43.309,10.98,55.642c5.692,3.815,12.267,6.109,19.097,6.661l16.83-28.645
	c-6.293,7.627-17.576,8.709-25.203,2.416c-2.59-2.138-4.528-4.96-5.59-8.145"/>
<linearGradient id="path59_2_" gradientUnits="userSpaceOnUse" x1="-196.4565" y1="572.1658" x2="-214.0016" y2="529.9145" gradientTransform="matrix(1 0 0 1 306.5 -455.4746)">
	<stop  offset="0" style="stop-color:#E4B022"/>
	<stop  offset="0.3" style="stop-color:#FCD209"/>
</linearGradient>
<path id="path59_1_" inkscape:connector-curvature="0" fill="url(#path59_2_)" d="M81.982,125.036
	c22.085,1.67,41.342-14.881,43.012-36.966c0.539-7.126-0.836-14.266-3.983-20.683H84.847c9.888,0.045,17.866,8.098,17.82,17.986
	c-0.019,4-1.376,7.879-3.856,11.018"/>
<linearGradient id="path61_2_" gradientUnits="userSpaceOnUse" x1="-246.1797" y1="545.0623" x2="-246.1797" y2="516.4178" gradientTransform="matrix(1 0 0 1 306.5 -455.4746)">
	<stop  offset="0" style="stop-color:#000000;stop-opacity:0.15"/>
	<stop  offset="0.3" style="stop-color:#000000;stop-opacity:0.06"/>
	<stop  offset="1" style="stop-color:#000000;stop-opacity:0.03"/>
</linearGradient>
<path id="path61_1_" inkscape:connector-curvature="0" fill="url(#path61_2_)" d="M51.906,62.733l16.113,27.929
	c-1.194-4.017-0.94-8.326,0.716-12.174L52.621,61.659"/>
<linearGradient id="path63_2_" gradientUnits="userSpaceOnUse" x1="-206.6416" y1="554.3123" x2="-226.3347" y2="574.3634" gradientTransform="matrix(1 0 0 1 306.5 -455.4746)">
	<stop  offset="0" style="stop-color:#000000;stop-opacity:0.15"/>
	<stop  offset="0.3" style="stop-color:#000000;stop-opacity:0.06"/>
	<stop  offset="1" style="stop-color:#000000;stop-opacity:0.03"/>
</linearGradient>
<path id="path63_1_" inkscape:connector-curvature="0" fill="url(#path63_2_)" d="M81.982,125.036l16.83-28.645
	c-2.655,3.166-6.324,5.316-10.384,6.087l-7.162,22.558"/>
<linearGradient id="path65_2_" gradientUnits="userSpaceOnUse" x1="-206.9277" y1="560.0847" x2="-204.0631" y2="531.7963" gradientTransform="matrix(1 0 0 1 306.5 -455.4746)">
	<stop  offset="0" style="stop-color:#000000;stop-opacity:0.15"/>
	<stop  offset="0.3" style="stop-color:#000000;stop-opacity:0.06"/>
	<stop  offset="1" style="stop-color:#000000;stop-opacity:0.03"/>
</linearGradient>
<path id="path65_1_" inkscape:connector-curvature="0" fill="url(#path65_2_)" d="M121.011,67.387H84.847
	c5.447,0.025,10.587,2.529,13.964,6.804l22.916-5.729"/>
</svg>
