<?xml version="1.0" encoding="utf-8"?>
<!-- Generator: Adobe Illustrator 16.2.0, SVG Export Plug-In . SVG Version: 6.00 Build 0)  -->
<!DOCTYPE svg PUBLIC "-//W3C//DTD SVG 1.1//EN" "http://www.w3.org/Graphics/SVG/1.1/DTD/svg11.dtd">
<svg version="1.1" id="Layer_1" xmlns="http://www.w3.org/2000/svg" xmlns:xlink="http://www.w3.org/1999/xlink" x="0px" y="0px"
	 width="82px" height="80px" viewBox="23.923 20.878 82 80" enable-background="new 23.923 20.878 82 80"
	 xml:space="preserve">
<filter  width="150%" height="150%" id="blurshadow" x="-25%" y="-25%">
	<feGaussianBlur  result="blur" in="SourceAlpha" stdDeviation="1.5"></feGaussianBlur>
	<feOffset  dy="1" dx="1" result="shift" in="blur"></feOffset>
	<feMerge>
		<feMergeNode  in="shift"></feMergeNode>
		<feMergeNode  in="SourceGraphic"></feMergeNode>
	</feMerge>
</filter>
<title>Firefox Logo</title>
<desc>
	Firefox logo in SVG, authored by Jon Hicks, made in Adobe Illustrator  (file format cleaned up and slightly modified by Doug Schepers)
	</desc>
<g id="Firefox">
	<g id="Globe">
		<ellipse fill="#110070" cx="63.814" cy="59.449" rx="38.545" ry="38.571"/>
		
			<radialGradient id="SVGID_1_" cx="-39.657" cy="196.6455" r="67.7033" gradientTransform="matrix(1 0 0 -1 104 222.2188)" gradientUnits="userSpaceOnUse">
			<stop  offset="0" style="stop-color:#67C5D5"/>
			<stop  offset="0.1604" style="stop-color:#66C2D3"/>
			<stop  offset="0.2795" style="stop-color:#62B9CE"/>
			<stop  offset="0.3852" style="stop-color:#5CA8C6"/>
			<stop  offset="0.4832" style="stop-color:#5392BA"/>
			<stop  offset="0.5759" style="stop-color:#4874AA"/>
			<stop  offset="0.6646" style="stop-color:#3A5097"/>
			<stop  offset="0.7485" style="stop-color:#2A2781"/>
			<stop  offset="0.8146" style="stop-color:#1B006D"/>
			<stop  offset="1" style="stop-color:#596AAD"/>
		</radialGradient>
		<ellipse fill="url(#SVGID_1_)" cx="63.814" cy="59.449" rx="37.818" ry="37.842"/>
		
			<radialGradient id="SVGID_2_" cx="-39.6687" cy="192.1318" r="33.9298" gradientTransform="matrix(1 0 0 -1 104 222.2188)" gradientUnits="userSpaceOnUse">
			<stop  offset="0" style="stop-color:#0F80BC"/>
			<stop  offset="0.3376" style="stop-color:#0A5F9E"/>
			<stop  offset="1" style="stop-color:#00145A"/>
		</radialGradient>
		<path fill="url(#SVGID_2_)" d="M58.389,78.982c-0.047-0.204-0.557-0.8-0.947-0.934c-0.389-0.133-0.772,0.575-1.023-0.6
			c-0.822,0.472-1.177-0.13-1.177-0.13s-0.887,0.052-1.058,1.137c-0.422,0.5-1.505,2.317-0.93,0.427
			c0.579-1.9-0.61-0.148-0.721,0.806c-0.207,0.425-0.556,0.468-0.336-1.44c-0.762-0.263-1.151-2.031-0.733-2.065
			c-0.485-0.676-0.104-1.71,0.3-1.655c0.404,0.053,1.098-0.884,1.076-1.101c-0.021-0.216,0.313-0.062,0.292-1.518
			c-0.021-1.459,0.55-1.82,0.597-0.6c0.049,1.216,0.775-0.398,0.701-1.018c-0.076-0.616,0.072-2.01,0.515-1.186
			c-0.515-2.038-0.109-2.118,0.2-0.762c0.775,0.061,0.802,0.474,0.802,0.474c0.858-0.212,1.27,0.435,1.335,0.797
			c0.795-0.938,1.598,0.074,1.598,0.074s0.554-0.185,0.289,0.779c-0.266,0.96,1.151,0.441,0.813-0.249
			c0.697-0.353,1.732,0.716,2.058,1.444c0.326,0.732-0.559,1.77,0.131,2.02c0.693,0.25,0.39,1.456,0.39,1.456
			s1.45,0.805,0.444,1.495l-0.343,0.822c0,0,0.656,0.731,0.879,0.296c0.224-0.437,0.303,0.443,0.303,0.443
			c-0.084-0.155,0.161,0.907,1.065,1.131c0.908,0.222,1.483,1.656,0.475,1.675c-1.004,0.016-1.083-0.012-1.354,0.575
			c-0.271,0.584-1.553,0.604-2.217-0.151c-0.707,0.239-1.963-0.069-1.593-0.634c-0.61,0.355-1.185-0.599-0.709-1.025
			c0.477-0.424-0.267-0.973-0.518-0.365c-0.248,0.608-1.561,0.907-1.47-0.127c0.027-0.306,0.728-0.485,0.736-0.229
			C58.39,79.341,58.442,79.021,58.389,78.982z"/>
		<g>
			
				<radialGradient id="SVGID_3_" cx="-39.6726" cy="192.1289" r="33.9316" gradientTransform="matrix(1 0 0 -1 104 222.2188)" gradientUnits="userSpaceOnUse">
				<stop  offset="0" style="stop-color:#0F80BC"/>
				<stop  offset="0.3376" style="stop-color:#0A5F9E"/>
				<stop  offset="1" style="stop-color:#00145A"/>
			</radialGradient>
			<path fill="url(#SVGID_3_)" d="M89.659,49.407c0.201,0.199,0.596,0.154,0.814,0.093c0.221-0.063,0.189-0.219,0.379-0.28
				c0.187-0.063,0.908,0.28,0.72,1.029c-0.438,0.062-0.596,0.593-0.596,0.593s-0.438,0.187-0.658,0.093
				c-0.22-0.093-0.22-0.063-0.533-0.033c-0.314,0.033-1.068-0.404-0.252-0.404c0.817,0-0.093-0.375-0.438-0.375
				c-0.344,0-0.063-0.343,0.346-0.25C89.157,49.407,89.313,49.062,89.659,49.407z"/>
			
				<radialGradient id="SVGID_4_" cx="-39.6726" cy="192.1357" r="33.937" gradientTransform="matrix(1 0 0 -1 104 222.2188)" gradientUnits="userSpaceOnUse">
				<stop  offset="0" style="stop-color:#0F80BC"/>
				<stop  offset="0.3376" style="stop-color:#0A5F9E"/>
				<stop  offset="1" style="stop-color:#00145A"/>
			</radialGradient>
			<path fill="url(#SVGID_4_)" d="M86.832,51.101c-0.219,0.217,0.031,0.874,0.313,0.841c0.281-0.031,0.721-0.155,0.721-0.155
				s0.219,0.437,0,0.563c-0.219,0.124-0.856,0.069-0.03,0.374c0.847,0.312,1.065,0.217,1.129,0.062
				c0.063-0.155,0.344-0.685,0.502-0.654c0.125-0.28-0.439-0.529-0.125-0.718c0.312-0.187,0.063-0.873,0.063-0.873
				s-0.439,0.031-0.628,0.343c-0.188,0.312-0.438-0.031-0.626-0.031c-0.032,0.187-0.157,0.342-0.157,0.342l-0.126-0.282
				C87.866,50.912,86.988,50.882,86.832,51.101z"/>
		</g>
		
			<radialGradient id="SVGID_5_" cx="-39.114" cy="188.9199" r="37.2767" gradientTransform="matrix(1 0 0 -1 104 222.2188)" gradientUnits="userSpaceOnUse">
			<stop  offset="0" style="stop-color:#0F80BC"/>
			<stop  offset="0.2643" style="stop-color:#0B629B"/>
			<stop  offset="0.8439" style="stop-color:#031747"/>
			<stop  offset="1" style="stop-color:#00022F"/>
		</radialGradient>
		<path fill="url(#SVGID_5_)" d="M80.969,51.614c-0.027-0.08,0.25-0.403,0.176,0.016c-0.17,0.298,0.688,0.565,0.928,0.234
			c0.807-1.104-0.76-1.639-1.439-1.125c-0.687,0.518-1.064-0.592-0.275-0.75c0.785-0.16,0.851-1.579-0.015-1.584
			c0.764-0.377-0.294-1.506-1.168-1.699c-0.142-1.215-1.423-1.987-2.097-1.546c-0.68,0.442-0.738,0.364-1.734-0.241
			c-0.992-0.602-1.471,1.252-0.74,2.063c0.734,0.815,0.201,2.131,0.232,1.906c0,0-0.277,0.498-0.259,0.684
			c-0.841,0.285-1.086-0.898-1.607-1.16c-0.38,0.496-0.994,0.76-0.994,0.76l0.046-1.009c0,0-2.609-1.421-3.411-1.023
			c-0.988,0.305-1.222,2.593-0.324,2.927c0.898,0.338-1.128,1.181,0.904,3.323c2.087,2.2,2.895,2.263,3.32,1.905
			c0.105-0.09,0.287-0.226,0.509-0.375c0.021,0.084,0.054,0.166,0.106,0.242c0.522,0.785-1.214,1.404-1.456,2.53
			c-0.246,1.137-0.02,3.252,1.011,3.325c0.195-1.127,2.124-0.729,1.075,0.292c-1.068,1.042-0.319,1.226-0.319,1.226
			s0.051,1.95,1.684,1.327c-0.048,0.112-0.086,0.254-0.108,0.411c-0.457-0.092-1.572-0.232-1.846,0.547
			c-0.345,0.982-1.802-0.333-2.821,0.107c-1.016,0.438-2.498,1.876-1.999,2.887c0.959-0.455,1.693,1.596,0.354,1.175
			c-1.344-0.422-1.083,0.378-1.083,0.378s-1.399,1.104-0.089,2.279c-0.503,0.077-1.397,0.638-1.096,1.867
			c0,0-0.575,0.021-0.652,1.121c-1.875,0.378-1.761,0.96,1.061,0.322c-1.139,0.592,0.797,0.869,1.654,0.791
			c0.859-0.078,3.113,1.033,1.42,1.044c-1.697,0.011-1.191,0.841,0.841,0.88c2.028,0.042,1.815,0.513,2.116,0.492
			c0.302-0.021,1.614,1.014,1.543,1.587c-0.074,0.574,1.374,1.17,2.316,0.512c0.048,0.598,2.524,0.132,2.891-0.944
			c2.682,0.409,2.62-0.091,2.022-0.409c-1.343-0.205-3.807-1.99-1.134-1.071c2.658,0.916,0.098-0.722-0.604-1.352
			c-1.527-0.297-1.604-1.569-1.604-1.569s0.843-0.479,0.178-1.68c1.649-0.306,0.653-0.886,0.839-1.438
			c0.186-0.555,1.022-1.262,1.31-1.318c0.055-0.075,0.503,0.015,0.087,0.184c-0.36,0.004-0.104,1.018,0.326,1.069
			c1.457,0.177,1.03-1.725,0.175-2.107c-0.857-0.386-0.088-1.432,0.515-0.728c0.603,0.703,1.944-0.086,1.44-0.977
			c0.801,0.555,1.231-1.24,0.892-2.271c1.07-0.928,1.036-2.779,0.208-3.193c-0.407-0.203-0.604-0.335-0.703-0.588
			c0.491-0.232,1.144-0.404,1.4-0.175c0.416,0.376,1.575-0.661,1.501-1.874c0.488,0.268,1.266-2.206,0.605-3.071
			c1.511-2.112,1.104-2.304,0.599-1.95c-0.761,1.054-3.258,2.315-1.322,0.447c1.879-1.813-0.499-0.438-1.295-0.144
			c-0.936,1.172-1.93,0.609-1.93,0.609s0.042-0.96-1.166-0.98c0.558-1.541-0.342-0.984-0.657-1.405
			C80.987,52.905,80.874,51.877,80.969,51.614z"/>
		
			<radialGradient id="SVGID_6_" cx="-39.6697" cy="192.1328" r="33.9309" gradientTransform="matrix(1 0 0 -1 104 222.2188)" gradientUnits="userSpaceOnUse">
			<stop  offset="0" style="stop-color:#0F80BC"/>
			<stop  offset="0.3376" style="stop-color:#0A5F9E"/>
			<stop  offset="1" style="stop-color:#00145A"/>
		</radialGradient>
		<path fill="url(#SVGID_6_)" d="M61.379,36.171c-0.234,0.611,0.766,1.604,1.268,1.285c0.504-0.321,1.225-0.962,1.225-0.962
			s0.765,0.614,0.456,1.052c-0.311,0.437-1.55,0.927,0.243,0.729c1.839-0.203,2.175-0.583,2.165-0.934
			c-0.009-0.35,0.092-1.604,0.41-1.691c0.01-0.643-1.25-0.583-0.814-1.227c0.437-0.641-0.587-1.693-0.587-1.693
			s-0.798,0.467-0.898,1.226c-0.1,0.758-0.847,0.35-1.2,0.524c0.091,0.379-0.017,0.787-0.017,0.787l-0.462-0.409
			C63.166,34.857,61.495,35.617,61.379,36.171z"/>
		
			<radialGradient id="SVGID_7_" cx="-39.6687" cy="192.1387" r="33.9363" gradientTransform="matrix(1 0 0 -1 104 222.2188)" gradientUnits="userSpaceOnUse">
			<stop  offset="0" style="stop-color:#0F80BC"/>
			<stop  offset="0.3376" style="stop-color:#0A5F9E"/>
			<stop  offset="1" style="stop-color:#00145A"/>
		</radialGradient>
		<path fill="url(#SVGID_7_)" d="M64.369,68.277c-0.219,0.217,0.032,0.873,0.313,0.842c0.282-0.031,0.721-0.155,0.721-0.155
			s0.219,0.436,0,0.562c-0.22,0.124-0.857,0.07-0.032,0.374c0.846,0.312,1.066,0.218,1.13,0.063c0.062-0.156,0.343-0.687,0.5-0.656
			c0.127-0.279-0.439-0.528-0.125-0.715c0.313-0.189,0.064-0.875,0.064-0.875s-0.439,0.031-0.628,0.344
			c-0.188,0.312-0.439-0.032-0.627-0.032c-0.032,0.188-0.156,0.344-0.156,0.344l-0.126-0.28
			C65.405,68.091,64.526,68.06,64.369,68.277z"/>
		<g>
			<g>
				<defs>
					<ellipse id="SVGID_8_" cx="63.814" cy="59.449" rx="37.818" ry="37.842"/>
				</defs>
				<clipPath id="SVGID_9_">
					<use xlink:href="#SVGID_8_"  overflow="visible"/>
				</clipPath>
				
					<linearGradient id="SVGID_10_" gradientUnits="userSpaceOnUse" x1="-31.9905" y1="190.5625" x2="-21.0381" y2="189.6287" gradientTransform="matrix(1 0 0 -1 104 222.2188)">
					<stop  offset="0" style="stop-color:#0F80BC"/>
					<stop  offset="0.3376" style="stop-color:#0A5F9E"/>
					<stop  offset="1" style="stop-color:#00145A"/>
				</linearGradient>
				<path clip-path="url(#SVGID_9_)" fill="url(#SVGID_10_)" d="M64.662,21.529c-0.592,0.132,0.398,2.275,0.398,2.275
					s-0.036,1.44,0.208,1.513c0.243,0.074,1.853,0.476,2.694,1.523c0.846,1.048,0.406,1.6-0.297,1.297
					c-0.704-0.302-0.518,0.623-0.518,0.623s2.124,0.691,0.52,0.646c-1.608-0.043,1.082,1.131,0.904,1.254
					c-0.177,0.124-0.278,0.799-0.278,0.799s-1.419,0.119-0.217,0.623c4.066,1.713-0.435,1.25-0.435,1.25l-0.573,0.707l1.136,1.425
					l0.873,0.625c0,0,1.841-0.614,2.414-0.71c0.574-0.095,2.023-1.179,2.023-1.179s0.435,0.311,0.109-0.323
					C73.3,33.245,74.821,33.528,75.2,34l2.686,1.212c0.035,0.094,0.095,0.178,0.189,0.244c0.524,0.367-0.473,0.998-0.371,1.665
					c0.101,0.66,0.709,1.756,1.377,1.641c-0.117-0.629,1.203-0.705,0.743-0.004c-0.458,0.7,0.051,0.687,0.051,0.687
					s0.423,0.988,1.321,0.439c-0.037,0.301,0.146,0.907,0.917,0.948c0,0-0.082,0.329,0.552,0.562
					c-0.086,1.128,0.274,1.164,0.363-0.55c0.159,0.752,0.645-0.306,0.742-0.812c0.097-0.509,1.141-1.627,0.858-0.639
					c-0.28,0.979,3.076,1.338,3.448,0.168c0.376-1.179,1.713-1.794,1.753-1.974c0.04-0.182-2.977-0.462-2.644-0.32
					c0.334,0.142,0.955-0.616,0.725-1.29c0.373,0.075,0.539-1.495-0.054-1.901c0.742-1.563,0.422-1.611,0.117-1.3
					c-0.37,0.783-1.897,1.963-0.861,0.509c1.045-1.47-0.425-0.185-0.935,0.135c-0.447,0.871-1.233,0.702-1.233,0.702
					s-0.145-0.592-0.984-0.395c0.098-1.047-0.425-0.544-0.728-0.75c-0.186-0.125-0.363-0.407-0.473-0.649
					c0.725,0.293,1.697,0.606,1.529,0.067c-0.108-0.352,1.373,0.418,1.424,0.257l1.851-0.257l1.799-1.137
					C77.867,20.985,64.662,21.529,64.662,21.529z"/>
			</g>
			<g>
				<defs>
					<ellipse id="SVGID_11_" cx="63.814" cy="59.449" rx="37.818" ry="37.842"/>
				</defs>
				<clipPath id="SVGID_12_">
					<use xlink:href="#SVGID_11_"  overflow="visible"/>
				</clipPath>
				
					<linearGradient id="SVGID_13_" gradientUnits="userSpaceOnUse" x1="-56.5984" y1="188.9023" x2="-62.6514" y2="180.012" gradientTransform="matrix(1 0 0 -1 104 222.2188)">
					<stop  offset="0" style="stop-color:#0F80BC"/>
					<stop  offset="0.3376" style="stop-color:#0A5F9E"/>
					<stop  offset="1" style="stop-color:#00145A"/>
				</linearGradient>
				<path clip-path="url(#SVGID_12_)" fill="url(#SVGID_13_)" d="M47.572,24.837c-6.868,3.084-12.051,9.44-12.051,9.44
					s0.609,1.393,0.821,1.291c0.215-0.101-1.533,3.656-0.25,3.868c1.29,0.211,5-2.324,4.312-2.091
					c-0.686,0.231,0.387-1.372,0.387-1.372s1.931-0.856,0.789,0.131c-1.132,0.981,1.505,0.121,1.465,0.322
					c-0.042,0.202,0.341,0.745,0.341,0.745s-0.905,0.971,0.263,0.58c4.009-1.348,0.528,1.156,0.528,1.156l0.068,0.852l1.735,0.301
					l1.025-0.097c0,0,0.897-1.583,1.244-2.013c0.348-0.43,0.668-2.133,0.668-2.133s0.521-0.055-0.139-0.304
					c-0.66-0.25,0.631-1.028,1.225-0.932l2.795-0.868c0.09,0.044,0.189,0.067,0.306,0.054c0.639-0.074,0.317,1.041,0.84,1.461
					c0.517,0.418,1.707,0.821,2.132,0.305c-0.509-0.386,0.438-1.307,0.559-0.488c0.122,0.812,0.499,0.47,0.499,0.47
					s1.002-1.724,1.322-2.713c0.176,0.245,1.812-2.15,1.316-3.292c-0.501-1.157,0.311-2.245,0.221-2.414
					c-0.093-0.166-0.582,0.343-0.221,0.221c0.364-0.125-1.032,0.501-1.217-1.339c-0.188-1.877-0.459,0.158-0.64,0.759
					c0.245,0.979,2.787-3.958,2.787-3.958l3.277-1.336C63.977,21.445,56.519,20.821,47.572,24.837z"/>
			</g>
		</g>
		
			<linearGradient id="SVGID_14_" gradientUnits="userSpaceOnUse" x1="-40.9026" y1="178.8984" x2="-40.9026" y2="193.6126" gradientTransform="matrix(1 0 0 -1 104 222.2188)">
			<stop  offset="0.0137" style="stop-color:#000000;stop-opacity:0"/>
			<stop  offset="0.65" style="stop-color:#C4E0E3;stop-opacity:0.2"/>
			<stop  offset="0.8224" style="stop-color:#C4E0E3"/>
			<stop  offset="0.8498" style="stop-color:#CDE5E8"/>
			<stop  offset="0.9443" style="stop-color:#E8F4F7"/>
			<stop  offset="1" style="stop-color:#F2FAFC"/>
		</linearGradient>
		<ellipse opacity="0.5" fill="url(#SVGID_14_)" enable-background="new    " cx="63.097" cy="35.995" rx="20.024" ry="12.973"/>
	</g>
	<g id="Fox" filter="url(#blurshadow)">
		<g>
			
				<linearGradient id="SVGID_15_" gradientUnits="userSpaceOnUse" x1="-39.7161" y1="164.7666" x2="-30.629" y2="170.1034" gradientTransform="matrix(1 0 0 -1 104 222.2188)">
				<stop  offset="0" style="stop-color:#DF731B"/>
				<stop  offset="0.5449" style="stop-color:#DF731B"/>
				<stop  offset="0.7014" style="stop-color:#EC8811"/>
				<stop  offset="0.8593" style="stop-color:#F4950B"/>
				<stop  offset="1" style="stop-color:#F79A09"/>
			</linearGradient>
			<path fill="url(#SVGID_15_)" d="M103.807,48.866l-0.926,5.944c0,0-1.324-11.004-2.948-15.118
				c-2.488-6.304-3.595-6.253-3.602-6.244c1.666,4.235,1.363,6.51,1.363,6.51s-2.952-8.047-10.758-10.607
				c-9.246-3.03-13.955-1.935-13.921-1.893c0.036,0.043,9.556,1.665,11.244,3.984c0,0-4.044,0-8.068,1.16
				c-0.182,0.052,14.807,1.872,17.871,16.85c0,0-1.644-3.428-3.676-4.01c1.337,4.065,0.994,11.779-0.278,15.613
				c-0.164,0.493-0.331-2.131-2.839-3.262c0.804,5.753-0.048,14.879-4.039,17.393c-0.312,0.195,2.502-9.009,0.565-5.45
				c-11.562,17.726-25.306,7.172-30.881,3.41c4.475,1.096,9.228,0.307,11.979-1.574c2.777-1.898,4.42-3.285,5.895-2.958
				c1.475,0.33,2.456-1.15,1.312-2.463c-1.147-1.315-3.932-3.124-7.698-2.138c-2.656,0.695-5.948,3.635-10.972,0.658
				c-4.287-2.54-4.258-4.602-4.258-5.917s1.17-3.313,3.298-2.985c1.906,0.294,0.902-0.825,2.952,0
				c0.559,0.225-0.056-2.682-0.851-4.545c1.531-3.195,6.499-4.145,6.87-4.425c0.672-0.508,0.302-0.761,0.531-1.527
				c0.214-0.712,0.351-2.638-5.208-2.106c-2.558,0.245-4.186-3.07-4.718-3.875c0.172-1.024,0.45-1.96,0.825-2.818
				c0.381-0.781,0.798-1.498,1.214-2.039c0.13-0.17,0.243-0.318,0.346-0.457c0.828-0.967,1.846-1.792,3.067-2.48
				c0.638-0.36-7.125-0.023-10.618,4.53c-0.938,0.122-2.224-0.148-3.662-0.148c-1.802,0-3.217,0.197-4.528,0.526
				c-0.21,0.053-0.548,0.024-0.961-0.074c-1.153-1.195-4.416-4.066-4.565-7.96c0,0-4.744,3.646-4.034,13.584
				c-0.062,5.497-1.685,3.925-2.52,6.908c-0.388,1.413,0.583,2.478,0.583,2.52c-0.001,0.021,1.167-1.264,1.167-1.264
				s-7.356,12.743,2.144,29.012c8.187,14.024,21.927,20.222,36.185,19.016c2.494-0.162,5.006-0.534,7.512-1.14
				C107.42,88.976,103.807,48.866,103.807,48.866z"/>
		</g>
		
			<linearGradient id="SVGID_16_" gradientUnits="userSpaceOnUse" x1="-54.4241" y1="177.3291" x2="-47.3704" y2="176.7247" gradientTransform="matrix(1 0 0 -1 104 222.2188)">
			<stop  offset="0.0112" style="stop-color:#941403"/>
			<stop  offset="0.8972" style="stop-color:#E85C0A"/>
		</linearGradient>
		<path fill="url(#SVGID_16_)" d="M51.935,38.814c0,0,1.436,3.923,4.656,3.91c6.143-0.025,6.266,0.061,6.305,0.808
			c0.123,2.273-1,3.019-1.429,3.342c-0.431,0.323-6.28,3.714-6.496,4.684c-0.215,0.969-6.75-9.223-6.75-9.223L51.935,38.814z"/>
		
			<linearGradient id="SVGID_17_" gradientUnits="userSpaceOnUse" x1="-65.719" y1="179.2842" x2="-40.2594" y2="176.1017" gradientTransform="matrix(1 0 0 -1 104 222.2188)">
			<stop  offset="0.0112" style="stop-color:#941403"/>
			<stop  offset="0.1357" style="stop-color:#A32104"/>
			<stop  offset="0.4978" style="stop-color:#C84107"/>
			<stop  offset="0.7893" style="stop-color:#DF5509"/>
			<stop  offset="0.972" style="stop-color:#E85C0A"/>
		</linearGradient>
		<path fill="url(#SVGID_17_)" d="M55.206,43.043c0,0,1.996,2.548,0.486,3.567c-1.843,1.245,2.607,1.517,4.219,0.612
			c1.613-0.904,2.602-2.234,2.659-2.433s0.586-1.984-2.779-1.361C57.662,43.821,56.883,43.912,55.206,43.043z"/>
		
			<linearGradient id="SVGID_18_" gradientUnits="userSpaceOnUse" x1="-49.946" y1="172.5488" x2="-47.9157" y2="173.4422" gradientTransform="matrix(1 0 0 -1 104 222.2188)">
			<stop  offset="0" style="stop-color:#F2C8A9"/>
			<stop  offset="1" style="stop-color:#FFFFCC"/>
		</linearGradient>
		<path fill="url(#SVGID_18_)" d="M61.468,46.874c0.326-0.246,1.049-0.739,1.327-1.956c-0.203,0.082-0.221-0.149-0.459-0.049
			c-4.518,4.713-4.691,1.431-7.157,2.091c-2.248,0.616-2.752,1.459-2.847,1.525c0.033,0.047,0.068,0.096,0.101,0.144
			c0.648,0.329,1.269,1.378,1.735,2.315c0.456,0.543,0.762,0.811,0.806,0.614C55.187,50.587,61.037,47.196,61.468,46.874z"/>
		
			<linearGradient id="SVGID_19_" gradientUnits="userSpaceOnUse" x1="-56.4192" y1="147.6934" x2="-22.2683" y2="146.2872" gradientTransform="matrix(1 0 0 -1 104 222.2188)">
			<stop  offset="0" style="stop-color:#B30000"/>
			<stop  offset="1" style="stop-color:#DF731B"/>
		</linearGradient>
		<path fill="url(#SVGID_19_)" d="M27.712,50.619c-0.923,1.935-6.842,11.938,2.818,28.586c9.453,16.295,25.813,21.616,42.516,18
			c4.77-1.031,10.267-4.762,13.77-7.499c-2.251-5.678-0.918-5.465-2.124-4.718c-13.456,8.33-24.153,0.113-32.431-0.938
			c-30.456-3.86-24.442-33.492-24.442-33.492L27.712,50.619z"/>
		
			<linearGradient id="SVGID_20_" gradientUnits="userSpaceOnUse" x1="-48.2917" y1="152.9932" x2="-30.4855" y2="146.6354" gradientTransform="matrix(1 0 0 -1 104 222.2188)">
			<stop  offset="0" style="stop-color:#941403"/>
			<stop  offset="1" style="stop-color:#DF731B"/>
		</linearGradient>
		<path fill="url(#SVGID_20_)" d="M53.072,73.453c2.871,0.86,9.134,0.119,11.824-1.882c1.813-1.348,3.182-2.363,4.333-2.788
			c-2.035-1.383-2.067,0.577-6.349,1.569c-8.918,2.068-13.248-2.401-13.248-2.401c0.632,3.537,2.84,5.259,3.834,5.87
			C53.202,73.588,53.064,73.451,53.072,73.453z"/>
		
			<linearGradient id="SVGID_21_" gradientUnits="userSpaceOnUse" x1="-66.8108" y1="161.8145" x2="-49.4524" y2="161.8145" gradientTransform="matrix(0.9988 0.049 0.049 -0.9988 85.4543 241.6462)">
			<stop  offset="0.0562" style="stop-color:#B30000"/>
			<stop  offset="1" style="stop-color:#DE5C01"/>
		</linearGradient>
		<path fill="url(#SVGID_21_)" d="M43.401,89.604c0,0-7.424-8.378-9.496-17.76c-3.056-2.886-5.224-5.326-6.664-7.092
			C28.073,71.429,31.476,81.793,43.401,89.604z"/>
		
			<linearGradient id="SVGID_22_" gradientUnits="userSpaceOnUse" x1="147.9158" y1="401.4482" x2="157.3603" y2="372.1888" gradientTransform="matrix(0.9929 0.1186 0.1186 -0.9929 -161.3865 451.5868)">
			<stop  offset="0.0562" style="stop-color:#DE7210"/>
			<stop  offset="1" style="stop-color:#F6C08F"/>
		</linearGradient>
		<path fill="url(#SVGID_22_)" d="M37.208,81.995c0,0-5.124-7.294-3.203-13.487c1.728-5.568-0.367-2.256-1.585-1.065
			c-1.231,1.202-1.864-3.55-1.833-4.097c0.002-0.011,0.001-0.017,0-0.018C30.51,63.311,28.149,74.713,37.208,81.995z"/>
		
			<linearGradient id="SVGID_23_" gradientUnits="userSpaceOnUse" x1="-63.2039" y1="177.3633" x2="-63.2039" y2="144.6568" gradientTransform="matrix(0.999 0.0448 0.0448 -0.999 86.0069 240.4622)">
			<stop  offset="0.0562" style="stop-color:#DE7210"/>
			<stop  offset="1" style="stop-color:#F6C08F"/>
		</linearGradient>
		<path fill="url(#SVGID_23_)" d="M29.618,75.637c0,0-1.168-14.804,2.523-16.896c5.863-3.323,0.489-2.545-1.21-1.623
			c-1.718,0.931-1.559-5.197-1.316-5.779C29.854,50.765,23.564,57.132,29.618,75.637z"/>
		<path fill="#A40000" d="M55.269,32.077c0,0-4.642,4.714-4.608,4.73c0.036,0.017,0.133,6.051,0.285,7.761
			c0.556,0.657,2.29,4.93,0.963,3.981c-1.356-0.968-0.378-0.989-0.26-0.497c0.003,0.016,0.003,0.024,0,0.024
			C51.56,48.119,48.281,40.981,55.269,32.077z"/>
		
			<linearGradient id="SVGID_24_" gradientUnits="userSpaceOnUse" x1="-69.6824" y1="181.3027" x2="-73.2306" y2="190.3952" gradientTransform="matrix(1 0 0 -1 104 222.2188)">
			<stop  offset="0.0112" style="stop-color:#941403"/>
			<stop  offset="0.4719" style="stop-color:#E85C0A"/>
			<stop  offset="1" style="stop-color:#F9BD5F"/>
		</linearGradient>
		<path fill="url(#SVGID_24_)" d="M33.19,28.444c0,0-4.933,3.784-3.99,14.165c3.818-3.428,9.217-5.991,9.217-5.991
			C37.511,36.048,33.354,32.723,33.19,28.444z"/>
		
			<linearGradient id="SVGID_25_" gradientUnits="userSpaceOnUse" x1="-54.5105" y1="179.2158" x2="-46.0075" y2="190.3924" gradientTransform="matrix(1 0 0 -1 104 222.2188)">
			<stop  offset="0.1966" style="stop-color:#DE7210"/>
			<stop  offset="0.8427" style="stop-color:#F9BD5F"/>
			<stop  offset="1" style="stop-color:#FFFCCF"/>
		</linearGradient>
		<path fill="url(#SVGID_25_)" d="M45.347,39.796l7.41,9.215c-2.138-9.049-0.494-14.479,4.768-17.44
			C58.304,31.132,46.531,31.729,45.347,39.796z"/>
		
			<linearGradient id="SVGID_26_" gradientUnits="userSpaceOnUse" x1="-59.0056" y1="163.9609" x2="-50.3865" y2="146.7227" gradientTransform="matrix(1 0 0 -1 104 222.2188)">
			<stop  offset="0.0169" style="stop-color:#941403"/>
			<stop  offset="0.5" style="stop-color:#E35100"/>
			<stop  offset="1" style="stop-color:#DF731B"/>
		</linearGradient>
		<path fill="url(#SVGID_26_)" d="M40.127,62.56c1.264-7.961,12.344-6.791,12.344-6.791c-0.494,0.367-2.393,0.586-2.936,2.105
			c-1.794,5.014-0.083,15.968,11.094,20.561C61.808,78.922,38.26,74.325,40.127,62.56z"/>
		
			<linearGradient id="SVGID_27_" gradientUnits="userSpaceOnUse" x1="-45.9875" y1="174.5322" x2="-43.8349" y2="172.5813" gradientTransform="matrix(1 0 0 -1 104 222.2188)">
			<stop  offset="0" style="stop-color:#EEA272"/>
			<stop  offset="0.1865" style="stop-color:#EFA777"/>
			<stop  offset="0.4064" style="stop-color:#F2B585"/>
			<stop  offset="0.643" style="stop-color:#F6CD9C"/>
			<stop  offset="0.8898" style="stop-color:#FCEEBB"/>
			<stop  offset="1" style="stop-color:#FFFFCC"/>
		</linearGradient>
		<path fill="url(#SVGID_27_)" d="M62.73,45.133c-0.055-0.009-0.102-0.008-0.126,0.024c-0.136,0.183-0.664,0.805-1.917,1.825
			c-2.328,1.894-3.308,1.414-5.042,1.802c-0.79,0.176-1.54,0.706-2.045,1.131c0.205,0.331,0.396,0.687,0.566,1.028
			c0.456,0.543,0.762,0.811,0.807,0.614c0.215-0.97,6.064-4.361,6.495-4.685C61.773,46.644,62.421,46.188,62.73,45.133z"/>
		
			<linearGradient id="SVGID_28_" gradientUnits="userSpaceOnUse" x1="-58.5398" y1="169.9258" x2="-48.652" y2="159.8362" gradientTransform="matrix(1 0 0 -1 104 222.2188)">
			<stop  offset="0.1966" style="stop-color:#DF731B"/>
			<stop  offset="0.8427" style="stop-color:#F9BD5F"/>
			<stop  offset="1" style="stop-color:#FFFCCF"/>
		</linearGradient>
		<path fill="url(#SVGID_28_)" d="M55.586,57.169c0.065-1.683-0.053-5.77-1.802-7.543c-1.336-1.354-1.65-2.906-1.83-4.678
			c-14.526,5.426-16.601,12.52-15.148,12.289C48.426,55.395,51.691,55.17,55.586,57.169z"/>
		
			<linearGradient id="SVGID_29_" gradientUnits="userSpaceOnUse" x1="812.9617" y1="1376.5342" x2="812.9617" y2="1339.4651" gradientTransform="matrix(0.9673 0.2537 0.2537 -0.9673 -1104.574 1172.1621)">
			<stop  offset="0.0562" style="stop-color:#DE7210"/>
			<stop  offset="1" style="stop-color:#F6C08F"/>
		</linearGradient>
		<path fill="url(#SVGID_29_)" d="M24.614,67.111c0,0,1.01-13.117,7.575-17.917c5.155-3.771,1.152-2.401-0.838-2.245
			c-2.099,0.167-3.218,1.443-2.813,0.973c0.018-0.02,0.023-0.031,0.02-0.036C28.488,47.806,23.631,51.882,24.614,67.111z"/>
		
			<linearGradient id="SVGID_30_" gradientUnits="userSpaceOnUse" x1="-90.0964" y1="192.1777" x2="-102.6296" y2="171.7666" gradientTransform="matrix(0.9897 -0.0801 -0.0949 -1.1727 139.7625 262.7294)">
			<stop  offset="0.0562" style="stop-color:#DE7210"/>
			<stop  offset="1" style="stop-color:#F2C06E"/>
		</linearGradient>
		<path fill="url(#SVGID_30_)" d="M23.923,57.035c0,0,3.518-11.168,10.628-11.074c4.715,0.063,0.975-3.985-0.451-4.6
			c-1.488-0.638-1.845-0.613-2.192-0.305C31.387,41.517,26.709,41.339,23.923,57.035z"/>
		
			<linearGradient id="SVGID_31_" gradientUnits="userSpaceOnUse" x1="-29.0291" y1="157.2676" x2="-42.3431" y2="154.7244" gradientTransform="matrix(1 0 0 -1 104 222.2188)">
			<stop  offset="0.0047" style="stop-color:#FFFAEE"/>
			<stop  offset="0.2757" style="stop-color:#F5F89B"/>
			<stop  offset="0.3102" style="stop-color:#F3ED91"/>
			<stop  offset="0.4668" style="stop-color:#ECC267"/>
			<stop  offset="0.6182" style="stop-color:#E6A046"/>
			<stop  offset="0.7611" style="stop-color:#E2872E"/>
			<stop  offset="0.8921" style="stop-color:#E07820"/>
			<stop  offset="1" style="stop-color:#DF731B"/>
		</linearGradient>
		<path fill="url(#SVGID_31_)" d="M71.888,67.966c0.534-0.523,0.162-2.535-3.198-3.755c-3.05-1.107-7.81,1.709-9.222,2.265
			c0,0,5.391-1.01,7.413-0.673C69.622,66.259,70.584,69.246,71.888,67.966z"/>
		
			<linearGradient id="SVGID_32_" gradientUnits="userSpaceOnUse" x1="-469.5725" y1="-166.6455" x2="-469.5725" y2="-197.627" gradientTransform="matrix(0.992 0.1261 0.1261 -0.992 519.0732 -59.2667)">
			<stop  offset="0.0562" style="stop-color:#DE7210"/>
			<stop  offset="1" style="stop-color:#F2C06E"/>
		</linearGradient>
		<path fill="url(#SVGID_32_)" d="M29.116,64.287c0,0-0.583-10.98,4.337-15.669c3.863-3.684,0.694-2.115-0.938-1.77
			c-1.722,0.365-2.511,1.544-2.225,1.111c0.012-0.018,0.014-0.028,0.012-0.032C30.235,47.868,26.652,51.772,29.116,64.287z"/>
		
			<linearGradient id="SVGID_33_" gradientUnits="userSpaceOnUse" x1="-434.5808" y1="-66.4976" x2="-434.5808" y2="-97.4755" gradientTransform="matrix(0.9324 0.3616 0.3616 -0.9324 461.818 139.755)">
			<stop  offset="0.0562" style="stop-color:#DE7210"/>
			<stop  offset="1" style="stop-color:#F2C06E"/>
		</linearGradient>
		<path fill="url(#SVGID_33_)" d="M25.326,60.799c0,0,2.08-10.797,7.986-14.162c4.637-2.643,1.185-1.885-0.483-1.943
			c-1.759-0.061-2.809,0.893-2.428,0.542c0.016-0.014,0.021-0.024,0.02-0.027C30.37,45.133,25.952,48.059,25.326,60.799z"/>
		
			<linearGradient id="SVGID_34_" gradientUnits="userSpaceOnUse" x1="-280.9417" y1="8.8745" x2="-289.568" y2="-4.0649" gradientTransform="matrix(0.8104 -0.5859 -0.5859 -0.8104 265.2613 -99.2216)">
			<stop  offset="0.0562" style="stop-color:#DE7210"/>
			<stop  offset="1" style="stop-color:#F2C072"/>
		</linearGradient>
		<path fill="url(#SVGID_34_)" d="M32.339,65.23c0,0-1.137-6.544,1.313-9.766c1.956-2.57,0.239-1.313-0.669-0.942
			c-0.947,0.387-1.306,1.15-1.177,0.87C31.931,55.119,27.591,58.482,32.339,65.23z"/>
		
			<linearGradient id="SVGID_35_" gradientUnits="userSpaceOnUse" x1="-276.2737" y1="13.1152" x2="-284.8986" y2="0.178" gradientTransform="matrix(0.8104 -0.5859 -0.5859 -0.8104 265.2613 -99.2216)">
			<stop  offset="0.0562" style="stop-color:#DE7210"/>
			<stop  offset="1" style="stop-color:#F2C072"/>
		</linearGradient>
		<path fill="url(#SVGID_35_)" d="M33.638,59.059c0,0-1.137-6.544,1.313-9.765c1.955-2.571,0.239-1.313-0.669-0.943
			c-0.947,0.387-1.307,1.15-1.177,0.87C33.23,48.948,28.89,52.311,33.638,59.059z"/>
		
			<linearGradient id="SVGID_36_" gradientUnits="userSpaceOnUse" x1="-73.6028" y1="176.7432" x2="-77.3763" y2="169.6994" gradientTransform="matrix(1 0 0 -1 104 222.2188)">
			<stop  offset="0.0562" style="stop-color:#DE7210"/>
			<stop  offset="1" style="stop-color:#EED8A5"/>
		</linearGradient>
		<path fill="url(#SVGID_36_)" d="M26.767,50.113c0,0,2.655-5.44,6.184-6.512c2.816-0.854,0.877-0.842,0.009-1.054
			c-0.907-0.22-1.579,0.152-1.334,0.014C31.865,42.427,26.864,42.593,26.767,50.113z"/>
		
			<linearGradient id="SVGID_37_" gradientUnits="userSpaceOnUse" x1="-73.9822" y1="172.4375" x2="-77.7557" y2="165.394" gradientTransform="matrix(1 0 0 -1 104 222.2188)">
			<stop  offset="0.0562" style="stop-color:#DE7210"/>
			<stop  offset="1" style="stop-color:#EED8A5"/>
		</linearGradient>
		<path fill="url(#SVGID_37_)" d="M26.388,54.418c0,0,2.655-5.44,6.184-6.512c2.817-0.854,0.877-0.842,0.009-1.054
			c-0.906-0.22-1.579,0.152-1.334,0.014C31.486,46.732,26.485,46.899,26.388,54.418z"/>
		
			<linearGradient id="SVGID_38_" gradientUnits="userSpaceOnUse" x1="-69.7058" y1="175.4287" x2="-73.3535" y2="166.3721" gradientTransform="matrix(1 0 0 -1 104 222.2188)">
			<stop  offset="0.0562" style="stop-color:#DE7210"/>
			<stop  offset="1" style="stop-color:#F2C072"/>
		</linearGradient>
		<path fill="url(#SVGID_38_)" d="M28.315,53.23c0,0,4.683-9.597,10.91-11.487c4.97-1.507,1.547-1.486,0.015-1.858
			c-1.599-0.388-2.785,0.269-2.354,0.025C37.308,39.672,28.487,39.966,28.315,53.23z"/>
		
			<linearGradient id="SVGID_39_" gradientUnits="userSpaceOnUse" x1="-68.3201" y1="179.835" x2="-76.9462" y2="166.8959" gradientTransform="matrix(1 0 0 -1 104 222.2188)">
			<stop  offset="0.0562" style="stop-color:#DE7210"/>
			<stop  offset="1" style="stop-color:#F2C072"/>
		</linearGradient>
		<path fill="url(#SVGID_39_)" d="M31.516,48.062c0,0,2.913-5.969,6.786-7.145c3.09-0.938,0.961-0.924,0.009-1.156
			c-0.995-0.241-1.732,0.167-1.464,0.016C37.11,39.629,31.623,39.811,31.516,48.062z"/>
		
			<linearGradient id="SVGID_40_" gradientUnits="userSpaceOnUse" x1="-67.7385" y1="177.2236" x2="-75.6002" y2="165.4312" gradientTransform="matrix(1 0 0 -1 104 222.2188)">
			<stop  offset="0.0562" style="stop-color:#DE7210"/>
			<stop  offset="1" style="stop-color:#F2C072"/>
		</linearGradient>
		<path fill="url(#SVGID_40_)" d="M32.466,50.17c0,0,2.655-5.44,6.185-6.512c2.817-0.854,0.877-0.842,0.009-1.054
			c-0.906-0.219-1.579,0.152-1.334,0.014C37.564,42.484,32.563,42.651,32.466,50.17z"/>
		
			<linearGradient id="SVGID_41_" gradientUnits="userSpaceOnUse" x1="-42.4392" y1="179.0605" x2="-41.8164" y2="177.9507" gradientTransform="matrix(1 0 0 -1 104 222.2188)">
			<stop  offset="0" style="stop-color:#8B8B89"/>
			<stop  offset="1" style="stop-color:#120500"/>
		</linearGradient>
		<path fill="url(#SVGID_41_)" d="M62.897,43.532c-0.03-0.567-0.114-0.752-2.829-0.798c0.311,0.141,0.848,0.423,1.438,0.908
			c0.78,0.639,0.907,1.352,0.988,2.09C62.758,45.228,62.951,44.535,62.897,43.532z"/>
		
			<linearGradient id="SVGID_42_" gradientUnits="userSpaceOnUse" x1="-66.948" y1="182.832" x2="-66.948" y2="186.2405" gradientTransform="matrix(1 0 0 -1 104 222.2188)">
			<stop  offset="0.0562" style="stop-color:#DE7210"/>
			<stop  offset="1" style="stop-color:#F6C08F"/>
		</linearGradient>
		<path fill="url(#SVGID_42_)" d="M46.954,35.953l-2.355,3.789c0,0-9.416-1.476-17.399,6.247
			C26.54,46.627,32.422,32.332,46.954,35.953z"/>
		
			<linearGradient id="SVGID_43_" gradientUnits="userSpaceOnUse" x1="-56.8015" y1="192.4824" x2="-49.6668" y2="200.8201" gradientTransform="matrix(0.9992 0.0398 0.0398 -0.9992 86.1773 237.7541)">
			<stop  offset="0.0562" style="stop-color:#DE7210"/>
			<stop  offset="1" style="stop-color:#F6C08F"/>
		</linearGradient>
		<path fill="url(#SVGID_43_)" d="M38.498,42.735c0,0,2.51-4.659,5.764-6.067C42.579,36.722,38.802,38.037,38.498,42.735z"/>
		
			<linearGradient id="SVGID_44_" gradientUnits="userSpaceOnUse" x1="-71.5276" y1="179.5732" x2="-75.3012" y2="172.5293" gradientTransform="matrix(1 0 0 -1 104 222.2188)">
			<stop  offset="0.0562" style="stop-color:#DE7210"/>
			<stop  offset="1" style="stop-color:#EED8A5"/>
		</linearGradient>
		<path fill="url(#SVGID_44_)" d="M28.842,47.282c0,0,2.655-5.44,6.185-6.511c2.816-0.854,0.876-0.842,0.009-1.054
			c-0.907-0.22-1.579,0.152-1.334,0.014C33.941,39.597,28.939,39.763,28.842,47.282z"/>
		
			<linearGradient id="SVGID_45_" gradientUnits="userSpaceOnUse" x1="-46.8376" y1="215.1758" x2="-39.8691" y2="223.3193" gradientTransform="matrix(0.9946 0.1039 0.1039 -0.9946 57.2263 262.6591)">
			<stop  offset="0.0562" style="stop-color:#DE7210"/>
			<stop  offset="1" style="stop-color:#F6C08F"/>
		</linearGradient>
		<path fill="url(#SVGID_45_)" d="M34.404,43.449c0,0,2.739-4.386,5.999-5.553C38.762,37.842,34.997,38.888,34.404,43.449z"/>
		
			<linearGradient id="SVGID_46_" gradientUnits="userSpaceOnUse" x1="-51.3625" y1="218.4023" x2="-42.9905" y2="217.2558" gradientTransform="matrix(0.9959 0.0903 0.0903 -0.9959 62.6606 257.0823)">
			<stop  offset="0.0562" style="stop-color:#DE7210"/>
			<stop  offset="1" style="stop-color:#F6C08F"/>
		</linearGradient>
		<path fill="url(#SVGID_46_)" d="M39.1,35.958c0,0-2.065,0.902-5.708-0.612l3.248,1.632L39.1,35.958z"/>
		
			<linearGradient id="SVGID_47_" gradientUnits="userSpaceOnUse" x1="-77.0652" y1="186.3281" x2="-65.2465" y2="184.7095" gradientTransform="matrix(1 0 0 -1 104 222.2188)">
			<stop  offset="0.0562" style="stop-color:#DE7210"/>
			<stop  offset="1" style="stop-color:#F6C08F"/>
		</linearGradient>
		<path fill="url(#SVGID_47_)" d="M38.102,36.537c0,0-2.752,1.067-8.051-0.521l4.532,1.804
			C35.144,37.301,38.102,36.537,38.102,36.537z"/>
		
			<linearGradient id="SVGID_48_" gradientUnits="userSpaceOnUse" x1="-49.7332" y1="218.8242" x2="-42.039" y2="217.7705" gradientTransform="matrix(0.9959 0.0903 0.0903 -0.9959 62.6606 257.0823)">
			<stop  offset="0.0562" style="stop-color:#DE7210"/>
			<stop  offset="1" style="stop-color:#F6C08F"/>
		</linearGradient>
		<path fill="url(#SVGID_48_)" d="M40.112,35.663c0,0-1.828,0.557-5.203-0.75l3.248,1.633
			C38.499,36.242,40.112,35.663,40.112,35.663z"/>
		
			<linearGradient id="SVGID_49_" gradientUnits="userSpaceOnUse" x1="-71.7273" y1="183.8408" x2="-78.6641" y2="184.5528" gradientTransform="matrix(1 0 0 -1 104 222.2188)">
			<stop  offset="0.0562" style="stop-color:#DE7210"/>
			<stop  offset="1" style="stop-color:#F6C08F"/>
		</linearGradient>
		<path fill="url(#SVGID_49_)" d="M34.413,37.764c0,0-1.357,1.127-4.834,1.173l3.008,0.099L34.413,37.764z"/>
		
			<linearGradient id="SVGID_50_" gradientUnits="userSpaceOnUse" x1="-50.3435" y1="214.335" x2="-40.7463" y2="225.5504" gradientTransform="matrix(0.9946 0.1039 0.1039 -0.9946 57.2263 262.6591)">
			<stop  offset="0.0562" style="stop-color:#DE7210"/>
			<stop  offset="1" style="stop-color:#F6C08F"/>
		</linearGradient>
		<path fill="url(#SVGID_50_)" d="M31.11,43.531c0,0,4.647-6.053,8.474-7.424C37.656,36.044,31.804,38.177,31.11,43.531z"/>
	</g>
	<g id="Fire">
		
			<linearGradient id="SVGID_51_" gradientUnits="userSpaceOnUse" x1="-24.2219" y1="125.0967" x2="-5.4258" y2="154.0874" gradientTransform="matrix(1 0 0 -1 104 222.2188)">
			<stop  offset="0" style="stop-color:#DE5C01"/>
			<stop  offset="0.736" style="stop-color:#FEFD00"/>
			<stop  offset="0.7783" style="stop-color:#FEFE26"/>
			<stop  offset="0.8369" style="stop-color:#FFFE54"/>
			<stop  offset="0.889" style="stop-color:#FFFF76"/>
			<stop  offset="0.932" style="stop-color:#FFFF8B"/>
			<stop  offset="0.9607" style="stop-color:#FFFF92"/>
		</linearGradient>
		<path fill="url(#SVGID_51_)" d="M103.079,53.853c0,0,0.501,11.23-15.1,26.832c-1.733,1.732-11.147,10.552-10.815,13.197
			C77.28,94.817,101.862,90.111,103.079,53.853z"/>
		
			<linearGradient id="SVGID_52_" gradientUnits="userSpaceOnUse" x1="-13.2908" y1="186.5703" x2="-25.5979" y2="191.9755" gradientTransform="matrix(1 0 0 -1 104 222.2188)">
			<stop  offset="0" style="stop-color:#F79A09"/>
			<stop  offset="0.736" style="stop-color:#FEFD00"/>
			<stop  offset="0.7783" style="stop-color:#FEFE26"/>
			<stop  offset="0.8369" style="stop-color:#FFFE54"/>
			<stop  offset="0.889" style="stop-color:#FFFF76"/>
			<stop  offset="0.932" style="stop-color:#FFFF8B"/>
			<stop  offset="0.9607" style="stop-color:#FFFF92"/>
		</linearGradient>
		<path fill="url(#SVGID_52_)" d="M72.834,27.437c18.791,1.443,22.43,14.955,22.431,14.127
			C95.312,28.43,77.437,27.432,72.834,27.437z"/>
		
			<linearGradient id="SVGID_53_" gradientUnits="userSpaceOnUse" x1="-5.0251" y1="174.2324" x2="-22.2544" y2="190.2275" gradientTransform="matrix(1 0 0 -1 104 222.2188)">
			<stop  offset="0" style="stop-color:#DE5C01"/>
			<stop  offset="0.736" style="stop-color:#FEFD00"/>
			<stop  offset="0.7783" style="stop-color:#FEFE26"/>
			<stop  offset="0.8369" style="stop-color:#FFFE54"/>
			<stop  offset="0.889" style="stop-color:#FFFF76"/>
			<stop  offset="0.932" style="stop-color:#FFFF8B"/>
			<stop  offset="0.9607" style="stop-color:#FFFF92"/>
		</linearGradient>
		<path fill="url(#SVGID_53_)" d="M78.556,32.573c0,0,13.026,2.663,16.7,16.47c0.487,1.829-1.569-11.217-0.935-9.979
			C94.956,40.31,89.079,32.986,78.556,32.573z"/>
		
			<linearGradient id="SVGID_54_" gradientUnits="userSpaceOnUse" x1="-126.1428" y1="61.4385" x2="-133.3571" y2="68.8998" gradientTransform="matrix(0.9996 -0.0282 -0.0282 -0.9996 221.6913 105.1945)">
			<stop  offset="0" style="stop-color:#F79A09"/>
			<stop  offset="0.736" style="stop-color:#FEFD00"/>
			<stop  offset="0.7783" style="stop-color:#FEFE26"/>
			<stop  offset="0.8369" style="stop-color:#FFFE54"/>
			<stop  offset="0.889" style="stop-color:#FFFF76"/>
			<stop  offset="0.932" style="stop-color:#FFFF8B"/>
			<stop  offset="0.9607" style="stop-color:#FFFF92"/>
		</linearGradient>
		<path fill="url(#SVGID_54_)" d="M83.762,32.235c0,0,11.765,2.452,11.882,21.119c0.082,13.211,2.04,4.959,3.982,1.99
			c1.675-2.565,0.53-5.691,0.49-5.683c-0.007,0.002-0.849-2.431-0.281-1.4c0.025,0.045-0.79-0.671-0.784-0.672
			C99.182,47.569,98.599,34.172,83.762,32.235z"/>
		
			<linearGradient id="SVGID_55_" gradientUnits="userSpaceOnUse" x1="-7.9133" y1="165.0693" x2="-3.853" y2="179.0367" gradientTransform="matrix(1 0 0 -1 104 222.2188)">
			<stop  offset="0" style="stop-color:#F79A09"/>
			<stop  offset="0.736" style="stop-color:#FEFD00"/>
			<stop  offset="0.7783" style="stop-color:#FEFE26"/>
			<stop  offset="0.8369" style="stop-color:#FFFE54"/>
			<stop  offset="0.889" style="stop-color:#FFFF76"/>
			<stop  offset="0.932" style="stop-color:#FFFF8B"/>
			<stop  offset="0.9607" style="stop-color:#FFFF92"/>
		</linearGradient>
		<path fill="url(#SVGID_55_)" d="M97.01,34.765c0,0,4.226,11.007-0.253,16.481c-1.462,1.787-1.626,10.939,0.16,10.098
			c1.791-0.842,1.401,4.86,1.167,5.509c-0.006,0.013-0.007,0.018-0.004,0.02C98.198,66.944,106.911,52.802,97.01,34.765z"/>
		
			<linearGradient id="SVGID_56_" gradientUnits="userSpaceOnUse" x1="-181.8972" y1="-2.8208" x2="-182.0453" y2="7.803" gradientTransform="matrix(0.9992 -0.0412 -0.0412 -0.9992 274.6707 50.0963)">
			<stop  offset="0" style="stop-color:#F79A09"/>
			<stop  offset="0.736" style="stop-color:#FEFD00"/>
			<stop  offset="0.7783" style="stop-color:#FEFE26"/>
			<stop  offset="0.8369" style="stop-color:#FFFE54"/>
			<stop  offset="0.889" style="stop-color:#FFFF76"/>
			<stop  offset="0.932" style="stop-color:#FFFF8B"/>
			<stop  offset="0.9607" style="stop-color:#FFFF92"/>
		</linearGradient>
		<path fill="url(#SVGID_56_)" d="M91.135,46.353c0,0,2.66,7.789-0.125,13.356l2.107,4.707
			C94.663,60.619,96.631,52.59,91.135,46.353z"/>
		
			<linearGradient id="SVGID_57_" gradientUnits="userSpaceOnUse" x1="-308.8992" y1="-126.105" x2="-301.5813" y2="-111.691" gradientTransform="matrix(0.9975 -0.0707 -0.0707 -0.9975 390.3305 -78.0339)">
			<stop  offset="0" style="stop-color:#F79A09"/>
			<stop  offset="0.736" style="stop-color:#FEFD00"/>
			<stop  offset="0.7783" style="stop-color:#FEFE26"/>
			<stop  offset="0.8369" style="stop-color:#FFFE54"/>
			<stop  offset="0.889" style="stop-color:#FFFF76"/>
			<stop  offset="0.932" style="stop-color:#FFFF8B"/>
			<stop  offset="0.9607" style="stop-color:#FFFF92"/>
		</linearGradient>
		<path fill="url(#SVGID_57_)" d="M95.814,45.426c0,0,1.84,12.362-4.799,23.521c0.103,2.581-0.351,4.917-0.972,6.842
			c0.289,0.381,0.676,0.641,1.187,0.687c-0.225,0.208-0.449,0.403-0.666,0.588c-0.399,0.176-0.808,0.362-1.203,0.554
			c-0.085,0.197-0.17,0.388-0.253,0.571c0.441-0.311,0.934-0.687,1.455-1.125c1.356-0.599,2.576-1.063,2.573-1.066
			c0,0-0.249,0.093-0.847,0.311c-0.401,0.146-0.753,0.195-1.06,0.168C96.357,71.804,103.382,61.356,95.814,45.426z M88.08,78.29
			c-0.587,0.344-1.013,0.666-1.104,0.915c-0.066,0.182,0.332,0.076,1.023-0.311C88.035,78.687,88.064,78.483,88.08,78.29z"/>
		
			<linearGradient id="SVGID_58_" gradientUnits="userSpaceOnUse" x1="-32.4436" y1="124.6436" x2="-31.4594" y2="140.6096" gradientTransform="matrix(0.9975 -0.0707 -0.0707 -0.9975 124.7631 204.0872)">
			<stop  offset="0" style="stop-color:#DE5C01"/>
			<stop  offset="0.736" style="stop-color:#FEFD00"/>
			<stop  offset="0.7783" style="stop-color:#FEFE26"/>
			<stop  offset="0.8369" style="stop-color:#FFFE54"/>
			<stop  offset="0.889" style="stop-color:#FFFF76"/>
			<stop  offset="0.932" style="stop-color:#FFFF8B"/>
			<stop  offset="0.9607" style="stop-color:#FFFF92"/>
		</linearGradient>
		<path fill="url(#SVGID_58_)" d="M87.627,58.598c0,0,5.233,14.897-11.494,28.863c-0.986,0.824,6.79,0.472,7.471,0.163
			c2.005-0.911,4.374-6.988,4.095-6.261C87.421,82.09,95.466,70.622,87.627,58.598z"/>
		
			<linearGradient id="SVGID_59_" gradientUnits="userSpaceOnUse" x1="-43.6848" y1="127.377" x2="-12.8242" y2="145.8224" gradientTransform="matrix(1 0 0 -1 104 222.2188)">
			<stop  offset="0" style="stop-color:#B9120D"/>
			<stop  offset="0.078" style="stop-color:#BB180D"/>
			<stop  offset="0.1822" style="stop-color:#C0290C"/>
			<stop  offset="0.3013" style="stop-color:#C8450A"/>
			<stop  offset="0.4314" style="stop-color:#D36C08"/>
			<stop  offset="0.5706" style="stop-color:#E29E05"/>
			<stop  offset="0.7151" style="stop-color:#F4DA02"/>
			<stop  offset="0.7921" style="stop-color:#FEFD00"/>
			<stop  offset="0.8136" style="stop-color:#FEFD07"/>
			<stop  offset="0.8455" style="stop-color:#FEFD1B"/>
			<stop  offset="0.8837" style="stop-color:#FEFE3C"/>
			<stop  offset="0.9268" style="stop-color:#FFFE69"/>
			<stop  offset="0.9736" style="stop-color:#FFFFA3"/>
			<stop  offset="1" style="stop-color:#FFFFC7"/>
		</linearGradient>
		<path fill="url(#SVGID_59_)" d="M94.947,68.046c0,0-3.158,19.322-24.985,20.877c-8.547,0.609-20.819-1.391-19.732,1.869
			c0.337,1.011,1.943,5.225,5.61,6.202C65.762,99.642,92.163,98.775,94.947,68.046z"/>
	</g>
	<g id="Layer_6">
		
			<linearGradient id="SVGID_60_" gradientUnits="userSpaceOnUse" x1="-25.5144" y1="174.126" x2="6.0995" y2="169.8428" gradientTransform="matrix(0.9951 0.0989 0.0989 -0.9951 66.3615 256.7065)">
			<stop  offset="0.0562" style="stop-color:#DE7210"/>
			<stop  offset="1" style="stop-color:#F6C08F"/>
		</linearGradient>
		<path fill="url(#SVGID_60_)" d="M76.742,82.669c0,0-13.354,3.051-22.007-4.314c-7.917-6.74-3.989-1.067-2.916,1.73
			c1.104,2.87-5.101,0.678-6.034,0.216C44.856,79.846,60.481,89.646,76.742,82.669z"/>
		
			<linearGradient id="SVGID_61_" gradientUnits="userSpaceOnUse" x1="-26.5862" y1="193.8779" x2="10.1221" y2="182.341" gradientTransform="matrix(0.9895 0.1448 0.1448 -0.9895 46.5313 274.2295)">
			<stop  offset="0.0562" style="stop-color:#DE7210"/>
			<stop  offset="1" style="stop-color:#F6C08F"/>
		</linearGradient>
		<path fill="url(#SVGID_61_)" d="M68.135,89.948c0,0-15.932-3.132-20.976-13.927c-4.31-9.223-3.169-2.455-3.364,0.626
			c-0.204,3.168-4.671-1.159-5.269-1.912c-0.017-0.019-0.028-0.03-0.03-0.027C38.409,74.767,46.715,87.787,68.135,89.948z"/>
		
			<linearGradient id="SVGID_62_" gradientUnits="userSpaceOnUse" x1="-738.571" y1="-456.4844" x2="-721.1164" y2="-489.9019" gradientTransform="matrix(0.9837 -0.1799 -0.1799 -0.9837 681.3842 -506.9955)">
			<stop  offset="0.0562" style="stop-color:#DE7210"/>
			<stop  offset="1" style="stop-color:#F6C08F"/>
		</linearGradient>
		<path fill="url(#SVGID_62_)" d="M50.732,88.552c0,0-7.61-5.894-11.041-13.976c-2.882-1.001-6.716-3.292-6.792-3.683
			C34.117,77.173,40.53,84.505,50.732,88.552z"/>
	</g>
</g>
</svg>
