<?xml version="1.0" encoding="utf-8"?>
<!-- Generator: Adobe Illustrator 16.2.0, SVG Export Plug-In . SVG Version: 6.00 Build 0)  -->
<!DOCTYPE svg PUBLIC "-//W3C//DTD SVG 1.1//EN" "http://www.w3.org/Graphics/SVG/1.1/DTD/svg11.dtd">
<svg version="1.1"
	 id="svg2" inkscape:version="0.48.2 r9819" sodipodi:docname="Internet Explorer 9 logo.svg" xmlns:sodipodi="http://sodipodi.sourceforge.net/DTD/sodipodi-0.dtd" xmlns:rdf="http://www.w3.org/1999/02/22-rdf-syntax-ns#" xmlns:inkscape="http://www.inkscape.org/namespaces/inkscape" xmlns:dc="http://purl.org/dc/elements/1.1/" xmlns:svg="http://www.w3.org/2000/svg" xmlns:cc="http://creativecommons.org/ns#"
	 xmlns="http://www.w3.org/2000/svg" xmlns:xlink="http://www.w3.org/1999/xlink" x="0px" y="0px" width="80.735px"
	 height="74.106px" viewBox="14.559 13.446 80.735 74.106" enable-background="new 14.559 13.446 80.735 74.106"
	 xml:space="preserve">
<g id="layer1" transform="translate(15.74869,-265.30153)" inkscape:groupmode="layer" inkscape:label="Capa 1">
	<g id="g3241">
		<g id="g3098" transform="matrix(0.38462212,0,0,0.38462212,-30.92626,239.595)">
			<g id="g3100">
				
					<radialGradient id="path3109_1_" cx="2170.6143" cy="354.0566" r="128.6143" gradientTransform="matrix(0.3342 0.1903 0.1575 -0.2766 -617.7616 -137.9384)" gradientUnits="userSpaceOnUse">
					<stop  offset="0.4713" style="stop-color:#3DC5F1"/>
					<stop  offset="0.7905" style="stop-color:#31A5DC"/>
					<stop  offset="1" style="stop-color:#1E71B8"/>
				</radialGradient>
				<path id="path3109" inkscape:connector-curvature="0" fill="url(#path3109_1_)" d="M197.954,252.156
					c-14.818,0-27.702-8.28-34.286-20.462c-2.971-5.5-4.659-11.796-4.659-18.487v-0.178h0.003h77.886h47.525
					c0.371-3.303,0.581-6.652,0.581-10.052c0-48.969-39.695-88.665-88.663-88.665c-48.969,0-88.666,39.696-88.666,88.665
					c0,48.968,39.698,88.663,88.666,88.663c38.91,0,71.948-25.078,83.882-59.946h-47.985
					C225.66,243.876,212.774,252.156,197.954,252.156z M196.342,154.516c19.896,0,36.148,15.564,37.265,35.178h-74.532
					C160.191,170.081,176.446,154.516,196.342,154.516z"/>
				<g id="g3111" opacity="0.5">
					
						<path id="path3113" inkscape:connector-curvature="0" fill="none" stroke="#FFFFFF" stroke-width="1.4689" stroke-miterlimit="10" d="
						M198.259,253.072c-14.818,0-27.702-8.28-34.286-20.462c-2.969-5.502-4.659-11.796-4.659-18.487v-0.18h0.004h77.884h47.523
						c0.373-3.301,0.587-6.65,0.587-10.052c0-48.968-39.7-88.664-88.668-88.664s-88.661,39.696-88.661,88.664
						c0,48.97,39.696,88.665,88.666,88.665c38.91,0,71.946-25.08,83.879-59.946h-47.982
						C225.962,244.792,213.077,253.072,198.259,253.072z M196.649,155.433c19.893,0,36.145,15.563,37.263,35.178H159.38
						C160.497,170.996,176.752,155.433,196.649,155.433z"/>
				</g>
				
					<path id="path3115" inkscape:connector-curvature="0" fill="none" stroke="#0F5EA8" stroke-width="1.4689" stroke-miterlimit="10" d="
					M197.954,252.156c-14.818,0-27.702-8.28-34.286-20.462c-2.971-5.5-4.659-11.796-4.659-18.487v-0.178h0.003h77.886h47.525
					c0.371-3.303,0.581-6.652,0.581-10.052c0-48.969-39.695-88.665-88.663-88.665c-48.969,0-88.666,39.696-88.666,88.665
					c0,48.968,39.698,88.663,88.666,88.663c38.91,0,71.948-25.078,83.882-59.946h-47.985
					C225.66,243.876,212.774,252.156,197.954,252.156z M196.342,154.516c19.896,0,36.148,15.564,37.265,35.178h-74.532
					C160.191,170.081,176.446,154.516,196.342,154.516z"/>
				<g id="g3117" opacity="0.1">
					
						<path id="path3119" inkscape:connector-curvature="0" fill="none" stroke="#231F20" stroke-width="1.4689" stroke-miterlimit="10" d="
						M197.649,251.851c-14.819,0-27.702-8.28-34.287-20.462c-2.971-5.5-4.659-11.796-4.659-18.487v-0.178h0.004h77.886h47.523
						c0.373-3.303,0.584-6.652,0.584-10.055c0-48.968-39.698-88.663-88.665-88.663c-48.969,0-88.664,39.695-88.664,88.663
						c0,48.97,39.695,88.665,88.664,88.665c38.913,0,71.948-25.078,83.882-59.946h-47.982
						C225.355,243.571,212.47,251.851,197.649,251.851z M196.037,154.212c19.893,0,36.148,15.563,37.265,35.178h-74.533
						C159.887,169.775,176.14,154.212,196.037,154.212z"/>
				</g>
			</g>
			
				<radialGradient id="path3136_1_" cx="2185.3481" cy="880.0524" r="57.7682" gradientTransform="matrix(0.2731 0.2708 0.7221 -0.7283 -1058.0336 245.6244)" gradientUnits="userSpaceOnUse">
				<stop  offset="0.638" style="stop-color:#FFCC09"/>
				<stop  offset="0.8712" style="stop-color:#F2ED7E;stop-opacity:0.96"/>
				<stop  offset="0.8919" style="stop-color:#F3EC79;stop-opacity:0.8057"/>
				<stop  offset="0.917" style="stop-color:#F4E76A;stop-opacity:0.6187"/>
				<stop  offset="0.9444" style="stop-color:#F7E051;stop-opacity:0.4146"/>
				<stop  offset="0.9732" style="stop-color:#FBD730;stop-opacity:0.2"/>
				<stop  offset="1" style="stop-color:#FFCC09;stop-opacity:0"/>
			</radialGradient>
			<path id="path3136" inkscape:connector-curvature="0" opacity="0.25" fill="url(#path3136_1_)" enable-background="new    " d="
				M150.581,279.821c-19.583,8.927-35.62,10.471-43.611,2.478c-16.355-16.356,7.107-66.337,52.404-111.634
				c45.296-45.297,95.279-68.759,111.633-52.404c6.98,6.981,6.688,20.099,0.556,36.351c0.899,1.39,1.76,2.803,2.58,4.244
				c8.234-21.47,8.14-39.729-2.686-50.556c-16.783-16.782-93.714,8.516-142.632,57.434
				c-48.915,48.915-61.113,103.113-44.513,119.713c12.649,12.649,45.611,10.476,71.971-2.491
				C154.34,281.979,152.44,280.933,150.581,279.821z"/>
			<path id="path3138" inkscape:connector-curvature="0" fill="#FFCC09" d="M150.581,279.821
				c-19.583,8.927-35.62,10.471-43.611,2.478c-16.355-16.356,7.107-66.337,52.404-111.634
				c45.296-45.297,95.279-68.759,111.633-52.404c6.98,6.981,6.688,20.099,0.556,36.351c0.899,1.39,1.76,2.803,2.58,4.244
				c8.234-21.47,8.14-39.729-2.686-50.556c-16.783-16.782-80.489-1.177-129.405,47.741C93.133,204.96,77.706,268.845,94.309,285.447
				c12.648,12.649,35.615,10.476,61.975-2.491C154.34,281.979,152.44,280.933,150.581,279.821L150.581,279.821z"/>
			
				<radialGradient id="path3157_1_" cx="2212.0916" cy="871.0186" r="65.3768" gradientTransform="matrix(0.2698 0.2741 0.7248 -0.7134 -1041.3154 217.6544)" gradientUnits="userSpaceOnUse">
				<stop  offset="0.5583" style="stop-color:#F2ED7E;stop-opacity:0"/>
				<stop  offset="0.7398" style="stop-color:#FFCC09"/>
				<stop  offset="0.8712" style="stop-color:#F2ED7E;stop-opacity:0.96"/>
				<stop  offset="0.8903" style="stop-color:#F3EB77;stop-opacity:0.8174"/>
				<stop  offset="0.919" style="stop-color:#F5E562;stop-opacity:0.6033"/>
				<stop  offset="0.9538" style="stop-color:#F9DC40;stop-opacity:0.3442"/>
				<stop  offset="0.993" style="stop-color:#FECF12;stop-opacity:0.0522"/>
				<stop  offset="1" style="stop-color:#FFCC09;stop-opacity:0"/>
			</radialGradient>
			<path id="path3157" inkscape:connector-curvature="0" fill="url(#path3157_1_)" d="M150.581,279.821
				c-19.583,8.927-35.62,10.471-43.611,2.478c-16.355-16.356,7.107-66.337,52.404-111.634
				c45.296-45.297,95.279-68.759,111.633-52.404c6.98,6.981,6.688,20.099,0.556,36.351c0.899,1.39,1.76,2.803,2.58,4.244
				c8.234-21.47,8.14-39.729-2.686-50.556c-16.783-16.782-80.489-1.177-129.405,47.741C93.133,204.96,77.706,268.845,94.309,285.447
				c12.648,12.649,35.615,10.476,61.975-2.491C154.34,281.979,152.44,280.933,150.581,279.821L150.581,279.821z"/>
		</g>
	</g>
</g>
</svg>
