<?xml version="1.0" encoding="utf-8"?>
<!-- Generator: Adobe Illustrator 16.2.0, SVG Export Plug-In . SVG Version: 6.00 Build 0)  -->
<!DOCTYPE svg PUBLIC "-//W3C//DTD SVG 1.1//EN" "http://www.w3.org/Graphics/SVG/1.1/DTD/svg11.dtd">
<svg version="1.1" id="Layer_1" xmlns="http://www.w3.org/2000/svg" xmlns:xlink="http://www.w3.org/1999/xlink" x="0px" y="0px"
	 width="80px" height="84.855px" viewBox="460.031 352.573 80 84.855" enable-background="new 460.031 352.573 80 84.855"
	 xml:space="preserve">
<linearGradient id="SVGID_1_" gradientUnits="userSpaceOnUse" x1="92.7896" y1="717.4902" x2="97.5063" y2="690.7403" gradientTransform="matrix(3.125 0 0 -3.125 202.9375 2596.0625)">
	<stop  offset="0" style="stop-color:#FF8C8F"/>
	<stop  offset="0.3804" style="stop-color:#F21818"/>
	<stop  offset="0.4461" style="stop-color:#E51515"/>
	<stop  offset="0.5683" style="stop-color:#C20E0E"/>
	<stop  offset="0.7324" style="stop-color:#8A0202"/>
	<stop  offset="0.7607" style="stop-color:#800000"/>
</linearGradient>
<path fill="url(#SVGID_1_)" d="M499.873,429.449c14.03,0,15.295-21.253,15.295-35.553c0-16.459-2.463-34.416-15.295-34.416
	c-12.83,0-14.979,19.091-14.979,34.416C484.893,408.065,486.042,429.45,499.873,429.449L499.873,429.449z M499.869,352.573
	c22.972,0,40.162,16.612,40.162,42.033c0,22.447-16.285,42.822-40.158,42.822c-23.642,0-39.842-20.381-39.842-42.822
	C460.031,369.387,476.689,352.573,499.869,352.573z"/>
<linearGradient id="SVGID_2_" gradientUnits="userSpaceOnUse" x1="95.042" y1="693.6953" x2="95.042" y2="691.0332" gradientTransform="matrix(3.125 0 0 -3.125 202.9375 2596.0625)">
	<stop  offset="0" style="stop-color:#FF444C;stop-opacity:0"/>
	<stop  offset="0.2367" style="stop-color:#FF393F;stop-opacity:0.2367"/>
	<stop  offset="0.6708" style="stop-color:#FF1B1E;stop-opacity:0.6708"/>
	<stop  offset="1" style="stop-color:#FF0000"/>
</linearGradient>
<path opacity="0.5" fill="url(#SVGID_2_)" enable-background="new    " d="M523.597,428.234c-5.976,5.273-13.862,8.27-23.724,8.27
	c-9.774,0-17.622-2.996-23.581-8.27l20.219-0.049c1.036,0.286,2.154,0.437,3.361,0.437c1.224,0,2.357-0.101,3.406-0.387h20.316
	L523.597,428.234z"/>
<linearGradient id="SVGID_3_" gradientUnits="userSpaceOnUse" x1="94.9502" y1="693.5977" x2="95.229" y2="716.4036" gradientTransform="matrix(3.125 0 0 -3.125 202.9375 2596.0625)">
	<stop  offset="0" style="stop-color:#E60000"/>
	<stop  offset="0.3568" style="stop-color:#DC0B0A"/>
	<stop  offset="0.9811" style="stop-color:#C02825"/>
	<stop  offset="1" style="stop-color:#BF2926"/>
</linearGradient>
<path opacity="0.8" fill="url(#SVGID_3_)" enable-background="new    " d="M499.866,428.411c-14.303,0-14.898-20.316-14.898-34.56
	c0-16.707,1.618-32.753,14.898-32.753c13.282,0,15.302,16.248,15.302,32.737c-0.004,14.269-0.799,34.574-15.304,34.574
	L499.866,428.411z M499.869,358.985c-15.623,0-17.185,20.862-17.185,34.856c0,15.844,3.116,36.42,17.185,36.42
	c14.985,0,17.61-20.605,17.61-36.42C517.479,380.071,515.814,358.984,499.869,358.985L499.869,358.985z"/>
<linearGradient id="SVGID_4_" gradientUnits="userSpaceOnUse" x1="95.1035" y1="693.7598" x2="95.1035" y2="716.2139" gradientTransform="matrix(3.125 0 0 -3.125 202.9375 2596.0625)">
	<stop  offset="0" style="stop-color:#B80000"/>
	<stop  offset="1" style="stop-color:#990000"/>
</linearGradient>
<path fill="url(#SVGID_4_)" d="M499.873,427.902c-13.822,0-14.373-19.989-14.373-34c0-16.438,1.539-32.198,14.373-32.198
	c12.835,0,14.772,15.959,14.772,32.182c-0.004,14.033-0.755,34.014-14.774,34.014L499.873,427.902z M499.876,359.556
	c-15.382,0-16.476,20.684-16.476,34.336c0,15.587,2.596,35.831,16.476,35.831c14.48,0,16.996-20.272,16.996-35.831
	c0-13.433-1.587-34.337-16.994-34.337L499.876,359.556z"/>
<g opacity="0.5">
	<defs>
		<filter id="Adobe_OpacityMaskFilter" filterUnits="userSpaceOnUse" x="484.847" y="361.161" width="30.47" height="32.37">
			<feColorMatrix  type="matrix" values="1 0 0 0 0  0 1 0 0 0  0 0 1 0 0  0 0 0 1 0"/>
		</filter>
	</defs>
	<mask maskUnits="userSpaceOnUse" x="484.847" y="361.161" width="30.47" height="32.37" id="SVGID_9_">
		<g filter="url(#Adobe_OpacityMaskFilter)">
			
				<image overflow="visible" enable-background="new    " width="88" height="93" xlink:href="671FA0DA.jpeg"  transform="matrix(0.3683 0 0 0.3683 483.8213 360.23)">
			</image>
		</g>
	</mask>
	<g mask="url(#SVGID_9_)">
		
			<linearGradient id="SVGID_5_" gradientUnits="userSpaceOnUse" x1="95.0854" y1="705.0557" x2="95.0854" y2="715.4141" gradientTransform="matrix(3.125 0 0 -3.125 202.9375 2596.0625)">
			<stop  offset="0" style="stop-color:#CF0000;stop-opacity:0"/>
			<stop  offset="0.1308" style="stop-color:#BF0000;stop-opacity:0.1308"/>
			<stop  offset="0.5151" style="stop-color:#960000;stop-opacity:0.5151"/>
			<stop  offset="0.8181" style="stop-color:#7C0000;stop-opacity:0.8181"/>
			<stop  offset="1" style="stop-color:#730000"/>
		</linearGradient>
		<path fill="url(#SVGID_5_)" d="M484.847,393.53c0-14.712,1.97-31.823,15.024-31.823c13.055,0,15.446,17.869,15.446,31.591
			c0-12.395-1.681-32.138-15.426-32.138c-13.715-0.002-15.041,19.759-15.041,32.37L484.847,393.53z"/>
	</g>
</g>
<g opacity="0.15">
	<defs>
		<filter id="Adobe_OpacityMaskFilter_1_" filterUnits="userSpaceOnUse" x="485.326" y="396.16" width="29.439" height="32.362">
			<feColorMatrix  type="matrix" values="1 0 0 0 0  0 1 0 0 0  0 0 1 0 0  0 0 0 1 0"/>
		</filter>
	</defs>
	<mask maskUnits="userSpaceOnUse" x="485.326" y="396.16" width="29.439" height="32.362" id="SVGID_11_">
		<g filter="url(#Adobe_OpacityMaskFilter_1_)">
			
				<image overflow="visible" enable-background="new    " width="85" height="93" xlink:href="671FA0DE.jpeg"  transform="matrix(0.3683 0 0 0.3683 484.5581 395.2212)">
			</image>
		</g>
	</mask>
	<g mask="url(#SVGID_11_)">
		
			<linearGradient id="SVGID_6_" gradientUnits="userSpaceOnUse" x1="95.0737" y1="693.8584" x2="95.0737" y2="704.2139" gradientTransform="matrix(3.125 0 0 -3.125 202.9375 2596.0625)">
			<stop  offset="0" style="stop-color:#730000"/>
			<stop  offset="0.1819" style="stop-color:#7C0000;stop-opacity:0.8181"/>
			<stop  offset="0.4849" style="stop-color:#960000;stop-opacity:0.5151"/>
			<stop  offset="0.8692" style="stop-color:#BF0000;stop-opacity:0.1308"/>
			<stop  offset="1" style="stop-color:#CF0000;stop-opacity:0"/>
		</linearGradient>
		<path fill="url(#SVGID_6_)" d="M514.765,396.16c0,14.713-2.164,31.815-14.792,31.815c-12.629,0-14.647-16.93-14.647-31.583
			c0,13.329,1.331,32.13,14.628,32.13c13.274,0.004,14.81-19.753,14.81-32.361L514.765,396.16z"/>
	</g>
</g>
<linearGradient id="SVGID_7_" gradientUnits="userSpaceOnUse" x1="82.6162" y1="697.7676" x2="107.6104" y2="697.7676" gradientTransform="matrix(3.125 0 0 -3.125 202.9375 2596.0625)">
	<stop  offset="0" style="stop-color:#E8000F"/>
	<stop  offset="1" style="stop-color:#E0000F"/>
</linearGradient>
<path opacity="0.8" fill="url(#SVGID_7_)" enable-background="new    " d="M461.114,394.344c0,21.712,14.797,42.383,38.847,42.383
	c24.225,0,39.26-21.26,39.26-42.383c0,20.933-15.385,42.044-39.26,42.044C476.265,436.385,461.114,415.854,461.114,394.344z"/>
<linearGradient id="SVGID_8_" gradientUnits="userSpaceOnUse" x1="95.0991" y1="706.9023" x2="95.0991" y2="719.0438" gradientTransform="matrix(3.125 0 0 -3.125 202.9375 2596.0625)">
	<stop  offset="0" style="stop-color:#FFFFFF;stop-opacity:0"/>
	<stop  offset="1" style="stop-color:#FFFFFF"/>
</linearGradient>
<path opacity="0.65" fill="url(#SVGID_8_)" enable-background="new    " d="M461.257,393.357c0-17.874,12.262-39.897,38.615-39.897
	c21.951,0,39.12,17.025,39.12,39.897c0-23.099-15.688-40.726-39.12-40.726C476.257,352.629,461.257,369.777,461.257,393.357
	L461.257,393.357z"/>
</svg>
